<svg width="36" height="36" viewBox="0 0 36 36" fill="none" xmlns="http://www.w3.org/2000/svg">
<g clip-path="url(#clip0)">
<path fill-rule="evenodd" clip-rule="evenodd" d="M34.5649 14.0357H1.44168C1.04424 14.0357 0.72168 14.3586 0.72168 14.7575V35.2778C0.72168 35.6767 1.04424 36 1.44168 36H34.5649C34.6596 35.9999 34.7534 35.9811 34.8409 35.9448C34.9284 35.9085 35.0078 35.8552 35.0747 35.7882C35.1416 35.7211 35.1946 35.6415 35.2308 35.5539C35.2669 35.4664 35.2854 35.3726 35.2853 35.2778V14.7575C35.2854 14.6628 35.2668 14.569 35.2307 14.4815C35.1945 14.394 35.1415 14.3144 35.0746 14.2474C35.0077 14.1804 34.9283 14.1272 34.8408 14.0908C34.7534 14.0545 34.6596 14.0358 34.5649 14.0357Z" fill="#D35400"/>
<path fill-rule="evenodd" clip-rule="evenodd" d="M1.7998 5.75064V35.2721C1.7998 35.6742 2.12236 36 2.5198 36H33.4802C33.5752 35.9995 33.6692 35.9802 33.7568 35.9434C33.8444 35.9066 33.9238 35.8528 33.9907 35.7853C34.0575 35.7177 34.1104 35.6376 34.1462 35.5496C34.1821 35.4617 34.2003 35.3675 34.1998 35.2724V0.716399C34.2003 0.621374 34.1821 0.527177 34.1462 0.439186C34.1104 0.351195 34.0575 0.271134 33.9907 0.203574C33.9238 0.136013 33.8444 0.0822767 33.7568 0.0454325C33.6692 0.0085882 33.5752 -0.0106422 33.4802 -0.0111609L7.56124 -0.00828085L1.7998 5.75064Z" fill="#ECF0F1"/>
<path opacity="0.1" d="M14.4004 25.92L34.1993 14.04L34.2004 16.5528L18.3705 25.92H14.4004Z" fill="black"/>
<path fill-rule="evenodd" clip-rule="evenodd" d="M0.719727 35.2768C0.719727 35.6764 1.04193 36 1.43973 36H34.5597C34.9572 36 35.2797 35.6764 35.2797 35.2768V15.12L17.9997 25.56L0.719727 15.12V35.2768Z" fill="#F39C12"/>
<path fill-rule="evenodd" clip-rule="evenodd" d="M1.7998 5.75064L7.56016 5.75424V0L1.7998 5.75064Z" fill="#F1C40F"/>
<path d="M0.719727 15.12L0.738447 34.56L17.9997 25.56L0.719727 15.12Z" fill="#F1C40F"/>
<path d="M35.28 15.12L18 25.56L35.28 34.56V15.12Z" fill="#E57E22"/>
<path opacity="0.3" fill-rule="evenodd" clip-rule="evenodd" d="M35.2797 35.2768V34.56L17.9997 25.56L35.0378 35.8135C35.185 35.6814 35.2797 35.491 35.2797 35.2768ZM0.719727 35.2768V34.56L17.9997 25.56L0.961647 35.8135C0.885742 35.7462 0.824946 35.6635 0.783251 35.571C0.741557 35.4785 0.719908 35.3782 0.719727 35.2768Z" fill="black"/>
</g>
<defs>
<clipPath id="clip0">
<rect width="36" height="36" fill="white"/>
</clipPath>
</defs>
</svg>
