<svg width="34" height="36" viewBox="0 0 34 36" fill="none" xmlns="http://www.w3.org/2000/svg">
<path fill-rule="evenodd" clip-rule="evenodd" d="M0.799805 5.75064V35.2721C0.799805 35.6742 1.12236 36 1.5198 36H32.4802C32.5752 35.9995 32.6692 35.9802 32.7568 35.9434C32.8444 35.9066 32.9238 35.8528 32.9907 35.7853C33.0575 35.7177 33.1104 35.6376 33.1462 35.5496C33.1821 35.4617 33.2003 35.3675 33.1998 35.2724V0.716399C33.2003 0.621374 33.1821 0.527177 33.1462 0.439186C33.1104 0.351195 33.0575 0.271134 32.9907 0.203574C32.9238 0.136013 32.8444 0.0822767 32.7568 0.0454325C32.6692 0.0085882 32.5752 -0.0106422 32.4802 -0.0111609L6.56124 -0.00828085L0.799805 5.75064Z" fill="#ECF0F1"/>
</svg>
