<svg width="34" height="34" viewBox="0 0 34 34" fill="none" xmlns="http://www.w3.org/2000/svg">
<path d="M0.0693359 33.8397L2.4518 25.1805C0.986914 22.647 0.206023 19.7685 0.21418 16.826C0.21418 7.60554 7.74817 0.108856 17.0048 0.108856C21.4961 0.108856 25.7137 1.84862 28.8772 5.00766C32.0484 8.16669 33.7952 12.368 33.7871 16.834C33.7871 26.0545 26.2532 33.5512 16.9965 33.5512H16.9886C14.1849 33.5501 11.4261 32.8499 8.96359 31.5146L0.0693359 33.8399V33.8397ZM9.38209 28.4839L9.88918 28.7885C12.0303 30.0554 14.4852 30.7209 16.9886 30.7289H16.9967C24.6835 30.7289 30.9458 24.4991 30.9458 16.834C30.9458 13.1218 29.4969 9.63401 26.8649 7.00419C24.2328 4.37437 20.7234 2.93114 16.9967 2.93114C9.30165 2.93114 3.03948 9.16096 3.03948 16.826C3.03948 19.4479 3.77185 22.0055 5.17248 24.2183L5.50252 24.7476L4.09388 29.8709L9.38209 28.4839Z" fill="white"/>
</svg>
