<svg width="18" height="16" viewBox="0 0 18 16" fill="none" xmlns="http://www.w3.org/2000/svg">
<path d="M4.8032 0.826475C4.48919 0.128887 4.15914 0.112778 3.86144 0.104794C3.61999 0.0968093 3.33831 0.0968094 3.0565 0.0968094C2.77483 0.0968094 2.32399 0.201027 1.93769 0.617899C1.55125 1.03491 0.472656 2.04515 0.472656 4.10584C0.472656 6.15826 1.97791 8.14666 2.18716 8.42724C2.39641 8.70796 5.09289 13.0616 9.35088 14.7373C12.8925 16.1325 13.617 15.8518 14.3816 15.7796C15.1543 15.7075 16.8608 14.7694 17.2149 13.7912C17.561 12.8131 17.561 11.9792 17.4564 11.8028C17.3517 11.6263 17.0701 11.5223 16.6514 11.3137C16.2329 11.1053 14.1723 10.095 13.7861 9.95073C13.3996 9.80645 13.1179 9.74229 12.8443 10.1592C12.5625 10.576 11.7577 11.5141 11.5161 11.7949C11.2746 12.0754 11.0252 12.1075 10.6065 11.8991C10.188 11.6906 8.83577 11.2495 7.23405 9.82242C5.98642 8.71594 5.14127 7.34486 4.89967 6.92799C4.65822 6.51112 4.87563 6.28643 5.08488 6.07813C5.26994 5.89365 5.50338 5.58898 5.71277 5.34847C5.92202 5.10795 5.99444 4.9316 6.13127 4.65088C6.2681 4.37031 6.20369 4.12979 6.09907 3.92136C5.99444 3.71278 5.17347 1.65223 4.8032 0.826475Z" fill="white"/>
</svg>
