<svg width="22" height="18" viewBox="0 0 22 18" fill="none" xmlns="http://www.w3.org/2000/svg">
<path d="M0 0.978261V17.0217C0 17.2812 0.103066 17.53 0.286526 17.7135C0.469986 17.8969 0.71881 18 0.978261 18H20.1522C20.4116 18 20.6605 17.8969 20.8439 17.7135C21.0274 17.53 21.1304 17.2812 21.1304 17.0217V0.978261C21.1304 0.71881 21.0274 0.469985 20.8439 0.286526C20.6605 0.103066 20.4116 0 20.1522 0H0.978261C0.71881 0 0.469986 0.103066 0.286526 0.286526C0.103066 0.469985 0 0.71881 0 0.978261ZM14.3384 2.99984C14.7828 3.00254 15.2164 3.1368 15.5846 3.38567C15.9529 3.63454 16.2391 3.98688 16.4073 4.39825C16.5755 4.80961 16.6181 5.26157 16.5298 5.69713C16.4414 6.13268 16.226 6.53231 15.9108 6.84561C15.5956 7.15891 15.1947 7.37184 14.7586 7.45755C14.3225 7.54327 13.8708 7.49792 13.4605 7.32722C13.0502 7.15653 12.6996 6.86814 12.4529 6.49843C12.2063 6.12873 12.0747 5.69426 12.0747 5.24984C12.0771 4.65148 12.3169 4.07854 12.7412 3.65672C13.1656 3.23491 13.74 2.99867 14.3384 2.99984ZM1.55201 16.4998V11.8296L7.55658 6.4394L12.1436 11.0054L6.61647 16.4998H1.55201ZM19.5652 16.4998H8.75543L15.8273 9.45636L19.5652 12.6484V16.4998Z" fill="white"/>
</svg>
