<svg width="26" height="25" viewBox="0 0 26 25" fill="none" xmlns="http://www.w3.org/2000/svg">
<path d="M12.5512 0.0588236H2.76608C2.48283 0.0588236 2.25107 0.289338 2.25107 0.571078V10.3039C2.25107 10.5857 2.48283 10.8162 2.76608 10.8162H12.5512C12.8344 10.8162 13.0662 10.5857 13.0662 10.3039V0.571078C13.0662 0.289338 12.8344 0.0588236 12.5512 0.0588236ZM10.8774 8.63909H4.43985V2.23591H10.8774V8.63909ZM25.4263 0.0588236H15.6412C15.358 0.0588236 15.1262 0.289338 15.1262 0.571078V10.3039C15.1262 10.5857 15.358 10.8162 15.6412 10.8162H25.4263C25.7096 10.8162 25.9413 10.5857 25.9413 10.3039V0.571078C25.9413 0.289338 25.7096 0.0588236 25.4263 0.0588236ZM23.7526 8.63909H17.315V2.23591H23.7526V8.63909ZM25.4263 12.8652H15.6412C15.358 12.8652 15.1262 13.0957 15.1262 13.3775V23.1103C15.1262 23.392 15.358 23.6225 15.6412 23.6225H25.4263C25.7096 23.6225 25.9413 23.392 25.9413 23.1103V13.3775C25.9413 13.0957 25.7096 12.8652 25.4263 12.8652ZM23.7526 21.4455H17.315V15.0423H23.7526V21.4455ZM11.2637 18.2439H7.14363V14.1458C7.14363 14.005 7.02775 13.8897 6.88613 13.8897H5.34111C5.19948 13.8897 5.08361 14.005 5.08361 14.1458V18.2439H0.963558C0.821931 18.2439 0.706055 18.3591 0.706055 18.5V20.0368C0.706055 20.1776 0.821931 20.2929 0.963558 20.2929H5.08361V24.3909C5.08361 24.5318 5.19948 24.6471 5.34111 24.6471H6.88613C7.02775 24.6471 7.14363 24.5318 7.14363 24.3909V20.2929H11.2637C11.4053 20.2929 11.5212 20.1776 11.5212 20.0368V18.5C11.5212 18.3591 11.4053 18.2439 11.2637 18.2439Z" fill="#F1EEE6"/>
</svg>
