<svg width="27" height="23" viewBox="0 0 27 23" fill="none" xmlns="http://www.w3.org/2000/svg">
<path d="M0.000488281 1.22974V21.3974C0.000488281 21.7236 0.129884 22.0364 0.36021 22.267C0.590536 22.4976 0.902925 22.6272 1.22866 22.6272H25.3007C25.6265 22.6272 25.9389 22.4976 26.1692 22.267C26.3995 22.0364 26.5289 21.7236 26.5289 21.3974V1.22974C26.5289 0.903591 26.3995 0.590802 26.1692 0.360182C25.9389 0.129561 25.6265 0 25.3007 0H1.22866C0.902925 0 0.590536 0.129561 0.36021 0.360182C0.129884 0.590802 0.000488281 0.903591 0.000488281 1.22974ZM18.0017 3.77099C18.5597 3.77439 19.1041 3.94316 19.5664 4.25601C20.0287 4.56886 20.388 5.01177 20.5992 5.52888C20.8104 6.04599 20.8639 6.61414 20.7529 7.16166C20.642 7.70917 20.3716 8.21153 19.9759 8.60537C19.5802 8.99921 19.0768 9.26688 18.5293 9.37463C17.9819 9.48238 17.4148 9.42537 16.8996 9.2108C16.3844 8.99623 15.9443 8.6337 15.6346 8.16896C15.325 7.70421 15.1598 7.15806 15.1598 6.59939C15.1628 5.84722 15.4638 5.12699 15.9966 4.59674C16.5294 4.06649 17.2505 3.76952 18.0017 3.77099ZM1.94898 20.7414V14.8706L9.48746 8.09475L15.2463 13.8345L8.3072 20.7414H1.94898ZM24.5638 20.7414H10.9926L19.871 11.8873L24.5638 15.8999V20.7414Z" fill="#3F6845"/>
</svg>
