<svg width="36" height="36" viewBox="0 0 36 36" fill="none" xmlns="http://www.w3.org/2000/svg">
<g clip-path="url(#clip0)">
<g filter="url(#filter0_f)">
<path d="M0.885742 35.1595L3.29816 26.3915C1.81485 23.8258 1.02426 20.9114 1.03241 17.9319C1.03241 8.59546 8.66104 1.00464 18.034 1.00464C22.5818 1.00464 26.8526 2.7664 30.0557 5.96507C33.2669 9.16375 35.0355 13.4179 35.0274 17.94C35.0274 27.2764 27.3986 34.8673 18.0258 34.8673H18.0177C15.1732 34.8673 12.3776 34.1529 9.89179 32.8051L0.885742 35.1595ZM10.3156 29.7363L10.8291 30.0449C12.9971 31.3276 15.4829 32.0013 18.0177 32.0095H18.0258C25.8094 32.0095 32.1502 25.7013 32.1502 17.94C32.1502 14.1811 30.6832 10.6496 28.0181 7.98654C25.3529 5.32366 21.7994 3.86236 18.0258 3.86236C10.2341 3.86236 3.89315 10.1705 3.89315 17.9318C3.89315 20.5867 4.6348 23.1764 6.05301 25.4173L6.38713 25.9531L4.96091 31.1408L10.3156 29.7363Z" fill="black" fill-opacity="0.24"/>
</g>
<path d="M1.65723 34.2545L3.95926 25.8918C2.53976 23.439 1.79304 20.6573 1.79405 17.826C1.79405 8.92618 9.07055 1.68612 17.9969 1.68612C22.3354 1.68612 26.4003 3.36985 29.4589 6.41654C32.5175 9.46337 34.2 13.5204 34.2 17.834C34.2 26.7337 26.9235 33.9738 17.997 33.9738H17.989C15.2763 33.9738 12.6121 33.2923 10.2456 32.0095L1.65723 34.2546V34.2545Z" fill="url(#paint0_linear)"/>
<path d="M1.06934 34.8397L3.4518 26.1805C1.98691 23.647 1.20602 20.7685 1.21418 17.826C1.21418 8.60554 8.74817 1.10886 18.0048 1.10886C22.4961 1.10886 26.7137 2.84862 29.8772 6.00766C33.0484 9.16669 34.7952 13.368 34.7871 17.834C34.7871 27.0545 27.2532 34.5512 17.9965 34.5512H17.9886C15.1849 34.5501 12.4261 33.8499 9.96359 32.5146L1.06934 34.8399V34.8397ZM10.3821 29.4839L10.8892 29.7885C13.0303 31.0554 15.4852 31.7209 17.9886 31.7289H17.9967C25.6835 31.7289 31.9458 25.4991 31.9458 17.834C31.9458 14.1218 30.4969 10.634 27.8649 8.00419C25.2328 5.37437 21.7234 3.93114 17.9967 3.93114C10.3016 3.93114 4.03948 10.161 4.03948 17.826C4.03948 20.4479 4.77185 23.0055 6.17248 25.2183L6.50252 25.7476L5.09388 30.8709L10.3821 29.4839Z" fill="white"/>
<path d="M13.8032 10.8265C13.4892 10.1289 13.1591 10.1128 12.8614 10.1048C12.62 10.0968 12.3383 10.0968 12.0565 10.0968C11.7748 10.0968 11.324 10.201 10.9377 10.6179C10.5513 11.0349 9.47266 12.0452 9.47266 14.1058C9.47266 16.1583 10.9779 18.1467 11.1872 18.4272C11.3964 18.708 14.0929 23.0616 18.3509 24.7373C21.8925 26.1325 22.617 25.8518 23.3816 25.7796C24.1543 25.7075 25.8608 24.7694 26.2149 23.7912C26.561 22.8131 26.561 21.9792 26.4564 21.8028C26.3517 21.6263 26.0701 21.5223 25.6514 21.3137C25.2329 21.1053 23.1723 20.095 22.7861 19.9507C22.3996 19.8064 22.1179 19.7423 21.8443 20.1592C21.5625 20.576 20.7577 21.5141 20.5161 21.7949C20.2746 22.0754 20.0252 22.1075 19.6065 21.8991C19.188 21.6906 17.8358 21.2495 16.234 19.8224C14.9864 18.7159 14.1413 17.3449 13.8997 16.928C13.6582 16.5111 13.8756 16.2864 14.0849 16.0781C14.2699 15.8937 14.5034 15.589 14.7128 15.3485C14.922 15.108 14.9944 14.9316 15.1313 14.6509C15.2681 14.3703 15.2037 14.1298 15.0991 13.9214C14.9944 13.7128 14.1735 11.6522 13.8032 10.8265Z" fill="white"/>
</g>
<defs>
<filter id="filter0_f" x="-5.11426" y="-4.99536" width="46.1417" height="46.1549" filterUnits="userSpaceOnUse" color-interpolation-filters="sRGB">
<feFlood flood-opacity="0" result="BackgroundImageFix"/>
<feBlend mode="normal" in="SourceGraphic" in2="BackgroundImageFix" result="shape"/>
<feGaussianBlur stdDeviation="3" result="effect1_foregroundBlur"/>
</filter>
<linearGradient id="paint0_linear" x1="17.9279" y1="34.2523" x2="17.9279" y2="1.68416" gradientUnits="userSpaceOnUse">
<stop stop-color="#20B038"/>
<stop offset="1" stop-color="#60D66A"/>
</linearGradient>
<clipPath id="clip0">
<rect width="36" height="36" fill="white"/>
</clipPath>
</defs>
</svg>
