<svg width="16" height="16" viewBox="0 0 16 16" fill="none" xmlns="http://www.w3.org/2000/svg">
<rect width="16" height="16" rx="2" fill="#202521"/>
<path d="M4.04126 6.26172V9.23711H4.56408V6.26172H4.04126Z" fill="#FE671F"/>
<path d="M8.48473 7.10333V9.23711H9.00755V6.26172H8.45072L7.54535 7.66865L6.63998 6.26172H6.08316V9.23711H6.59748V7.11183L7.52835 8.50602H7.54535L8.48473 7.10333Z" fill="#FE671F"/>
<path d="M12.7997 7.2606C12.7997 7.10758 12.7728 6.97015 12.719 6.8483C12.668 6.72645 12.5929 6.6216 12.4937 6.53375C12.3974 6.44591 12.2783 6.37932 12.1367 6.33398C11.9978 6.28581 11.842 6.26172 11.6691 6.26172H10.4959V9.23711H11.0188V8.28074H11.6096C11.7739 8.28074 11.9284 8.25948 12.0729 8.21698C12.2174 8.17164 12.3435 8.10646 12.4512 8.02145C12.5589 7.93644 12.6439 7.83018 12.7062 7.70266C12.7686 7.57514 12.7997 7.42779 12.7997 7.2606ZM12.2684 7.27335C12.2684 7.43487 12.2103 7.56522 12.0942 7.6644C11.9808 7.76075 11.825 7.80892 11.6266 7.80892H11.0188V6.73778H11.6266C11.8221 6.73778 11.978 6.78312 12.0942 6.8738C12.2103 6.96164 12.2684 7.09483 12.2684 7.27335Z" fill="#FE671F"/>
</svg>
